<svg width="88" height="16" viewBox="0 0 88 16" fill="none" xmlns="http://www.w3.org/2000/svg">
<path d="M14.6313 6.11925C14.5453 5.86725 14.3179 5.68925 14.0526 5.66859L10.2519 5.36659L8.60728 1.72592C8.49995 1.48659 8.26195 1.33325 7.99995 1.33325C7.73795 1.33325 7.49995 1.48659 7.39261 1.72525L5.74795 5.36659L1.94728 5.66859C1.68661 5.68925 1.46195 5.86059 1.37328 6.10659C1.28461 6.35259 1.34728 6.62792 1.53461 6.81059L4.34328 9.54859L3.34995 13.8499C3.28861 14.1159 3.39595 14.3926 3.62061 14.5479C3.73528 14.6266 3.86728 14.6666 3.99995 14.6666C4.12861 14.6666 4.25795 14.6293 4.36995 14.5546L7.99995 12.1346L11.6299 14.5546C11.8619 14.7093 12.1666 14.7033 12.3933 14.5386C12.6186 14.3739 12.7179 14.0853 12.6413 13.8173L11.4219 9.55059L14.4459 6.82925C14.6439 6.65059 14.7166 6.37192 14.6313 6.11925Z" fill="#FFBA08"/>
<path d="M32.6313 6.11925C32.5453 5.86725 32.3179 5.68925 32.0526 5.66859L28.2519 5.36659L26.6073 1.72592C26.4999 1.48659 26.2619 1.33325 25.9999 1.33325C25.7379 1.33325 25.4999 1.48659 25.3926 1.72525L23.7479 5.36659L19.9473 5.66859C19.6866 5.68925 19.4619 5.86059 19.3733 6.10659C19.2846 6.35259 19.3473 6.62792 19.5346 6.81059L22.3433 9.54859L21.3499 13.8499C21.2886 14.1159 21.3959 14.3926 21.6206 14.5479C21.7353 14.6266 21.8673 14.6666 21.9999 14.6666C22.1286 14.6666 22.2579 14.6293 22.3699 14.5546L25.9999 12.1346L29.6299 14.5546C29.8619 14.7093 30.1666 14.7033 30.3933 14.5386C30.6186 14.3739 30.7179 14.0853 30.6413 13.8173L29.4219 9.55059L32.4459 6.82925C32.6439 6.65059 32.7166 6.37192 32.6313 6.11925Z" fill="#FFBA08"/>
<path d="M50.6313 6.11925C50.5453 5.86725 50.3179 5.68925 50.0526 5.66859L46.2519 5.36659L44.6073 1.72592C44.4999 1.48659 44.2619 1.33325 43.9999 1.33325C43.7379 1.33325 43.4999 1.48659 43.3926 1.72525L41.7479 5.36659L37.9473 5.66859C37.6866 5.68925 37.4619 5.86059 37.3733 6.10659C37.2846 6.35259 37.3473 6.62792 37.5346 6.81059L40.3433 9.54859L39.3499 13.8499C39.2886 14.1159 39.3959 14.3926 39.6206 14.5479C39.7353 14.6266 39.8673 14.6666 39.9999 14.6666C40.1286 14.6666 40.2579 14.6293 40.3699 14.5546L43.9999 12.1346L47.6299 14.5546C47.8619 14.7093 48.1666 14.7033 48.3933 14.5386C48.6186 14.3739 48.7179 14.0853 48.6413 13.8173L47.4219 9.55059L50.4459 6.82925C50.6439 6.65059 50.7166 6.37192 50.6313 6.11925Z" fill="#FFBA08"/>
<path d="M68.6313 6.11925C68.5453 5.86725 68.3179 5.68925 68.0526 5.66859L64.2519 5.36659L62.6073 1.72592C62.4999 1.48659 62.2619 1.33325 61.9999 1.33325C61.7379 1.33325 61.4999 1.48659 61.3926 1.72525L59.7479 5.36659L55.9473 5.66859C55.6866 5.68925 55.4619 5.86059 55.3733 6.10659C55.2846 6.35259 55.3473 6.62792 55.5346 6.81059L58.3433 9.54859L57.3499 13.8499C57.2886 14.1159 57.3959 14.3926 57.6206 14.5479C57.7353 14.6266 57.8673 14.6666 57.9999 14.6666C58.1286 14.6666 58.2579 14.6293 58.3699 14.5546L61.9999 12.1346L65.6299 14.5546C65.8619 14.7093 66.1666 14.7033 66.3933 14.5386C66.6186 14.3739 66.7179 14.0853 66.6413 13.8173L65.4219 9.55059L68.4459 6.82925C68.6439 6.65059 68.7166 6.37192 68.6313 6.11925Z" fill="#FFBA08"/>
<path opacity="0.5" d="M76.344 9.54859L75.3507 13.8499C75.2893 14.1159 75.396 14.3926 75.6213 14.5479C75.7353 14.6266 75.8673 14.6666 76 14.6666C76.1287 14.6666 76.258 14.6293 76.37 14.5546L80 12.1346L83.63 14.5546C83.862 14.7093 84.1667 14.7033 84.3933 14.5386C84.6187 14.3739 84.718 14.0853 84.6413 13.8173L83.422 9.55059L86.446 6.82925C86.644 6.65059 86.7167 6.37192 86.6313 6.11992C86.5453 5.86792 86.318 5.69059 86.0527 5.66925L82.252 5.36659L80.6073 1.72592C80.5 1.48659 80.262 1.33325 80 1.33325C79.738 1.33325 79.5 1.48659 79.3927 1.72592L77.748 5.36659L73.9473 5.66859C73.686 5.68925 73.4613 5.86059 73.3733 6.10659C73.284 6.35259 73.348 6.62792 73.5347 6.81059L76.344 9.54859ZM78.246 6.66459C78.488 6.64525 78.7013 6.49592 78.8007 6.27392L80 3.61992L81.1993 6.27392C81.2987 6.49592 81.512 6.64525 81.754 6.66459L84.402 6.87459L82.2213 8.83725C82.032 9.00792 81.9567 9.27059 82.026 9.51592L82.8613 12.4393L80.3707 10.7786C80.1467 10.6286 79.8553 10.6286 79.6313 10.7786L77.0287 12.5139L77.7287 9.48325C77.7807 9.25659 77.7113 9.01859 77.5447 8.85659L75.5193 6.88192L78.246 6.66459Z" fill="white"/>
</svg>
