<svg width="193" height="26" viewBox="0 0 193 26" fill="none" xmlns="http://www.w3.org/2000/svg">
<path d="M14.6313 11.1193C14.5453 10.8673 14.3179 10.6893 14.0526 10.6686L10.2519 10.3666L8.60728 6.72592C8.49995 6.48659 8.26195 6.33325 7.99995 6.33325C7.73795 6.33325 7.49995 6.48659 7.39261 6.72525L5.74795 10.3666L1.94728 10.6686C1.68661 10.6893 1.46195 10.8606 1.37328 11.1066C1.28461 11.3526 1.34728 11.6279 1.53461 11.8106L4.34328 14.5486L3.34995 18.8499C3.28861 19.1159 3.39595 19.3926 3.62061 19.5479C3.73528 19.6266 3.86728 19.6666 3.99995 19.6666C4.12861 19.6666 4.25795 19.6293 4.36995 19.5546L7.99995 17.1346L11.6299 19.5546C11.8619 19.7093 12.1666 19.7033 12.3933 19.5386C12.6186 19.3739 12.7179 19.0853 12.6413 18.8173L11.4219 14.5506L14.4459 11.8293C14.6439 11.6506 14.7166 11.3719 14.6313 11.1193Z" fill="#FFBA08"/>
<path d="M32.6313 11.1193C32.5453 10.8673 32.3179 10.6893 32.0526 10.6686L28.2519 10.3666L26.6073 6.72592C26.4999 6.48659 26.2619 6.33325 25.9999 6.33325C25.7379 6.33325 25.4999 6.48659 25.3926 6.72525L23.7479 10.3666L19.9473 10.6686C19.6866 10.6893 19.4619 10.8606 19.3733 11.1066C19.2846 11.3526 19.3473 11.6279 19.5346 11.8106L22.3433 14.5486L21.3499 18.8499C21.2886 19.1159 21.3959 19.3926 21.6206 19.5479C21.7353 19.6266 21.8673 19.6666 21.9999 19.6666C22.1286 19.6666 22.2579 19.6293 22.3699 19.5546L25.9999 17.1346L29.6299 19.5546C29.8619 19.7093 30.1666 19.7033 30.3933 19.5386C30.6186 19.3739 30.7179 19.0853 30.6413 18.8173L29.4219 14.5506L32.4459 11.8293C32.6439 11.6506 32.7166 11.3719 32.6313 11.1193Z" fill="#FFBA08"/>
<path d="M50.6313 11.1193C50.5453 10.8673 50.3179 10.6893 50.0526 10.6686L46.2519 10.3666L44.6073 6.72592C44.4999 6.48659 44.2619 6.33325 43.9999 6.33325C43.7379 6.33325 43.4999 6.48659 43.3926 6.72525L41.7479 10.3666L37.9473 10.6686C37.6866 10.6893 37.4619 10.8606 37.3733 11.1066C37.2846 11.3526 37.3473 11.6279 37.5346 11.8106L40.3433 14.5486L39.3499 18.8499C39.2886 19.1159 39.3959 19.3926 39.6206 19.5479C39.7353 19.6266 39.8673 19.6666 39.9999 19.6666C40.1286 19.6666 40.2579 19.6293 40.3699 19.5546L43.9999 17.1346L47.6299 19.5546C47.8619 19.7093 48.1666 19.7033 48.3933 19.5386C48.6186 19.3739 48.7179 19.0853 48.6413 18.8173L47.4219 14.5506L50.4459 11.8293C50.6439 11.6506 50.7166 11.3719 50.6313 11.1193Z" fill="#FFBA08"/>
<path d="M68.6313 11.1193C68.5453 10.8673 68.3179 10.6893 68.0526 10.6686L64.2519 10.3666L62.6073 6.72592C62.4999 6.48659 62.2619 6.33325 61.9999 6.33325C61.7379 6.33325 61.4999 6.48659 61.3926 6.72525L59.7479 10.3666L55.9473 10.6686C55.6866 10.6893 55.4619 10.8606 55.3733 11.1066C55.2846 11.3526 55.3473 11.6279 55.5346 11.8106L58.3433 14.5486L57.3499 18.8499C57.2886 19.1159 57.3959 19.3926 57.6206 19.5479C57.7353 19.6266 57.8673 19.6666 57.9999 19.6666C58.1286 19.6666 58.2579 19.6293 58.3699 19.5546L61.9999 17.1346L65.6299 19.5546C65.8619 19.7093 66.1666 19.7033 66.3933 19.5386C66.6186 19.3739 66.7179 19.0853 66.6413 18.8173L65.4219 14.5506L68.4459 11.8293C68.6439 11.6506 68.7166 11.3719 68.6313 11.1193Z" fill="#FFBA08"/>
<path opacity="0.5" d="M76.344 14.5486L75.3507 18.8499C75.2893 19.1159 75.396 19.3926 75.6213 19.5479C75.7353 19.6266 75.8673 19.6666 76 19.6666C76.1287 19.6666 76.258 19.6293 76.37 19.5546L80 17.1346L83.63 19.5546C83.862 19.7093 84.1667 19.7033 84.3933 19.5386C84.6187 19.3739 84.718 19.0853 84.6413 18.8173L83.422 14.5506L86.446 11.8293C86.644 11.6506 86.7167 11.3719 86.6313 11.1199C86.5453 10.8679 86.318 10.6906 86.0527 10.6693L82.252 10.3666L80.6073 6.72592C80.5 6.48659 80.262 6.33325 80 6.33325C79.738 6.33325 79.5 6.48659 79.3927 6.72592L77.748 10.3666L73.9473 10.6686C73.686 10.6893 73.4613 10.8606 73.3733 11.1066C73.284 11.3526 73.348 11.6279 73.5347 11.8106L76.344 14.5486ZM78.246 11.6646C78.488 11.6453 78.7013 11.4959 78.8007 11.2739L80 8.61992L81.1993 11.2739C81.2987 11.4959 81.512 11.6453 81.754 11.6646L84.402 11.8746L82.2213 13.8373C82.032 14.0079 81.9567 14.2706 82.026 14.5159L82.8613 17.4393L80.3707 15.7786C80.1467 15.6286 79.8553 15.6286 79.6313 15.7786L77.0287 17.5139L77.7287 14.4833C77.7807 14.2566 77.7113 14.0186 77.5447 13.8566L75.5193 11.8819L78.246 11.6646Z" fill="white"/>
<path opacity="0.7" d="M97.256 21.392C96.6267 20.672 96.0853 19.8693 95.632 18.984C95.184 18.0933 94.8373 17.16 94.592 16.184C94.352 15.208 94.2347 14.2267 94.24 13.24C94.2347 12.2533 94.352 11.272 94.592 10.296C94.8373 9.31467 95.184 8.38133 95.632 7.496C96.0853 6.61067 96.6267 5.808 97.256 5.088L98.12 5.76C97.5013 6.50133 96.984 7.28 96.568 8.096C96.152 8.90667 95.84 9.744 95.632 10.608C95.4293 11.472 95.3253 12.3493 95.32 13.24C95.3253 14.12 95.432 14.9973 95.64 15.872C95.8533 16.7413 96.1653 17.5867 96.576 18.408C96.992 19.224 97.5067 19.9893 98.12 20.704L97.256 21.392ZM101.941 19V8.792L99.7725 10.096V8.776L101.941 7.48H103.133V19H101.941ZM105.75 19V17.632H107.118V19H105.75ZM109.269 18.992L109.277 17.92L114.485 13.216C114.933 12.8107 115.229 12.4267 115.373 12.064C115.522 11.696 115.597 11.312 115.597 10.912C115.597 10.4373 115.485 10.008 115.261 9.624C115.037 9.24 114.735 8.936 114.357 8.712C113.978 8.48267 113.554 8.368 113.085 8.368C112.594 8.368 112.157 8.48533 111.773 8.72C111.389 8.95467 111.085 9.264 110.861 9.648C110.642 10.032 110.535 10.4507 110.541 10.904H109.341C109.341 10.2053 109.506 9.57867 109.837 9.024C110.167 8.46933 110.615 8.03467 111.181 7.72C111.746 7.4 112.386 7.24 113.101 7.24C113.799 7.24 114.426 7.40533 114.981 7.736C115.541 8.06133 115.981 8.504 116.301 9.064C116.626 9.61867 116.789 10.2373 116.789 10.92C116.789 11.4 116.73 11.824 116.613 12.192C116.501 12.5547 116.322 12.8933 116.077 13.208C115.837 13.5173 115.53 13.8373 115.157 14.168L110.533 18.344L110.349 17.864H116.789V18.992H109.269ZM118.714 19V7.48H119.89V12.92L125.146 7.48H126.65L121.282 13.04L127.09 19H125.554L119.89 13.24V19H118.714ZM131.104 19V10.36H132.16V12.44L131.952 12.168C132.048 11.912 132.174 11.6773 132.328 11.464C132.483 11.2453 132.651 11.0667 132.832 10.928C133.056 10.7307 133.318 10.5813 133.616 10.48C133.915 10.3733 134.216 10.312 134.52 10.296C134.824 10.2747 135.102 10.296 135.352 10.36V11.464C135.038 11.384 134.694 11.3653 134.32 11.408C133.947 11.4507 133.603 11.6 133.288 11.856C133 12.08 132.784 12.3493 132.64 12.664C132.496 12.9733 132.4 13.304 132.352 13.656C132.304 14.0027 132.28 14.3467 132.28 14.688V19H131.104ZM140.37 19.24C139.527 19.24 138.796 19.0533 138.178 18.68C137.564 18.3067 137.087 17.7813 136.746 17.104C136.404 16.4267 136.234 15.632 136.234 14.72C136.234 13.776 136.402 12.96 136.738 12.272C137.074 11.584 137.546 11.0533 138.154 10.68C138.767 10.3067 139.49 10.12 140.322 10.12C141.175 10.12 141.903 10.3173 142.506 10.712C143.108 11.1013 143.564 11.6613 143.874 12.392C144.183 13.1227 144.324 13.9947 144.298 15.008H143.098V14.592C143.076 13.472 142.834 12.6267 142.37 12.056C141.911 11.4853 141.239 11.2 140.354 11.2C139.426 11.2 138.714 11.5013 138.218 12.104C137.727 12.7067 137.482 13.5653 137.482 14.68C137.482 15.768 137.727 16.6133 138.218 17.216C138.714 17.8133 139.415 18.112 140.322 18.112C140.94 18.112 141.479 17.9707 141.938 17.688C142.402 17.4 142.767 16.9867 143.034 16.448L144.13 16.872C143.788 17.624 143.284 18.208 142.618 18.624C141.956 19.0347 141.207 19.24 140.37 19.24ZM137.066 15.008V14.024H143.666V15.008H137.066ZM148.097 19L144.961 10.36H146.153L148.705 17.464L151.241 10.36H152.449L149.313 19H148.097ZM154.046 8.72V7.4H155.222V8.72H154.046ZM154.046 19V10.36H155.222V19H154.046ZM161.276 19.24C160.433 19.24 159.703 19.0533 159.084 18.68C158.471 18.3067 157.993 17.7813 157.652 17.104C157.311 16.4267 157.14 15.632 157.14 14.72C157.14 13.776 157.308 12.96 157.644 12.272C157.98 11.584 158.452 11.0533 159.06 10.68C159.673 10.3067 160.396 10.12 161.228 10.12C162.081 10.12 162.809 10.3173 163.412 10.712C164.015 11.1013 164.471 11.6613 164.78 12.392C165.089 13.1227 165.231 13.9947 165.204 15.008H164.004V14.592C163.983 13.472 163.74 12.6267 163.276 12.056C162.817 11.4853 162.145 11.2 161.26 11.2C160.332 11.2 159.62 11.5013 159.124 12.104C158.633 12.7067 158.388 13.5653 158.388 14.68C158.388 15.768 158.633 16.6133 159.124 17.216C159.62 17.8133 160.321 18.112 161.228 18.112C161.847 18.112 162.385 17.9707 162.844 17.688C163.308 17.4 163.673 16.9867 163.94 16.448L165.036 16.872C164.695 17.624 164.191 18.208 163.524 18.624C162.863 19.0347 162.113 19.24 161.276 19.24ZM157.972 15.008V14.024H164.572V15.008H157.972ZM168.507 19L165.867 10.352L167.043 10.36L169.091 17.072L171.147 10.36H172.219L174.275 17.072L176.339 10.36H177.507L174.867 19H173.843L171.683 12.12L169.531 19H168.507ZM181.86 19.232C180.846 19.232 180.012 19.0133 179.356 18.576C178.705 18.1387 178.305 17.5307 178.156 16.752L179.356 16.552C179.484 17.0427 179.774 17.4347 180.228 17.728C180.686 18.016 181.252 18.16 181.924 18.16C182.58 18.16 183.097 18.024 183.476 17.752C183.854 17.4747 184.044 17.0987 184.044 16.624C184.044 16.3573 183.982 16.1413 183.86 15.976C183.742 15.8053 183.5 15.648 183.132 15.504C182.764 15.36 182.214 15.1893 181.484 14.992C180.7 14.7787 180.086 14.5653 179.644 14.352C179.201 14.1387 178.886 13.8933 178.7 13.616C178.513 13.3333 178.42 12.9893 178.42 12.584C178.42 12.0933 178.558 11.664 178.836 11.296C179.113 10.9227 179.497 10.6347 179.988 10.432C180.478 10.224 181.049 10.12 181.7 10.12C182.35 10.12 182.932 10.2267 183.444 10.44C183.961 10.648 184.377 10.9413 184.692 11.32C185.006 11.6987 185.193 12.1387 185.252 12.64L184.052 12.856C183.972 12.3493 183.718 11.9493 183.292 11.656C182.87 11.3573 182.334 11.2027 181.684 11.192C181.07 11.176 180.572 11.2933 180.188 11.544C179.804 11.7893 179.612 12.1173 179.612 12.528C179.612 12.7573 179.681 12.9547 179.82 13.12C179.958 13.28 180.209 13.432 180.572 13.576C180.94 13.72 181.462 13.8773 182.14 14.048C182.934 14.2507 183.558 14.464 184.012 14.688C184.465 14.912 184.788 15.176 184.98 15.48C185.172 15.784 185.268 16.16 185.268 16.608C185.268 17.424 184.964 18.0667 184.356 18.536C183.753 19 182.921 19.232 181.86 19.232ZM187.06 21.872L186.196 21.184C186.809 20.4693 187.321 19.704 187.732 18.888C188.148 18.0667 188.46 17.2213 188.668 16.352C188.881 15.4773 188.991 14.6 188.996 13.72C188.991 12.8293 188.884 11.952 188.676 11.088C188.473 10.224 188.164 9.38667 187.748 8.576C187.332 7.76 186.815 6.98133 186.196 6.24L187.06 5.568C187.689 6.288 188.228 7.09067 188.676 7.976C189.129 8.86133 189.476 9.79467 189.716 10.776C189.961 11.752 190.081 12.7333 190.076 13.72C190.081 14.7067 189.961 15.688 189.716 16.664C189.476 17.64 189.129 18.5707 188.676 19.456C188.228 20.3467 187.689 21.152 187.06 21.872Z" fill="white"/>
</svg>
